<svg width="24" height="24" viewBox="0 0 24 24" fill="none" xmlns="http://www.w3.org/2000/svg">
<path d="M7.5625 7.79688C5.59499 7.79688 4 9.29879 4 11.1515V17.4423C4 19.295 5.59499 20.7969 7.5625 20.7969H19.4375C21.405 20.7969 23 19.295 23 17.4423V11.1515C23 9.29879 21.405 7.79688 19.4375 7.79688H7.5625ZM21.536 10.7667L5.46402 10.7667C5.65473 9.83912 6.52175 9.13872 7.5625 9.13872H19.4375C20.4782 9.13872 21.3453 9.83912 21.536 10.7667ZM5.425 12.1085L21.575 12.1085V13.7732L5.425 13.7732V12.1085ZM5.425 15.115L21.575 15.115V17.4423C21.575 18.5539 20.618 19.455 19.4375 19.455H7.5625C6.38199 19.455 5.425 18.5539 5.425 17.4423V15.115Z" fill="black"/>
<path d="M7.5625 7.79688C5.59499 7.79688 4 9.29879 4 11.1515V17.4423C4 19.295 5.59499 20.7969 7.5625 20.7969H19.4375C21.405 20.7969 23 19.295 23 17.4423V11.1515C23 9.29879 21.405 7.79688 19.4375 7.79688H7.5625ZM21.536 10.7667L5.46402 10.7667C5.65473 9.83912 6.52175 9.13872 7.5625 9.13872H19.4375C20.4782 9.13872 21.3453 9.83912 21.536 10.7667ZM5.425 12.1085L21.575 12.1085V13.7732L5.425 13.7732V12.1085ZM5.425 15.115L21.575 15.115V17.4423C21.575 18.5539 20.618 19.455 19.4375 19.455H7.5625C6.38199 19.455 5.425 18.5539 5.425 17.4423V15.115Z" stroke="black" stroke-width="0.3"/>
<path d="M16.8545 3.00195C18.4395 3.08236 19.7002 4.39301 19.7002 5.99805V7.39746H18.4004V5.99805C18.4004 5.05923 17.639 4.29796 16.7002 4.29785H4C3.06111 4.29785 2.2998 5.05916 2.2998 5.99805V13.1982C2.30002 14.1369 3.06125 14.8984 4 14.8984H4.2998V16.1982H4L3.8457 16.1943C2.31178 16.1166 1.08181 14.8864 1.00391 13.3525L1 13.1982V5.99805C1 4.34119 2.34315 2.99805 4 2.99805H16.7002L16.8545 3.00195Z" fill="black"/>
<path d="M16.8545 3.00195L16.8621 2.8521L16.8583 2.852L16.8545 3.00195ZM19.7002 5.99805H19.8502V5.99805H19.7002ZM19.7002 7.39746V7.54746H19.8502V7.39746H19.7002ZM18.4004 7.39746H18.2504V7.54746H18.4004V7.39746ZM18.4004 5.99805H18.5504V5.99805H18.4004ZM16.7002 4.29785L16.7002 4.14785H16.7002V4.29785ZM4 4.29785V4.14785V4.14785V4.29785ZM2.2998 13.1982H2.1498V13.1983L2.2998 13.1982ZM4.2998 14.8984H4.4498V14.7484H4.2998V14.8984ZM4.2998 16.1982V16.3482H4.4498V16.1982H4.2998ZM4 16.1982L3.9962 16.3482H4V16.1982ZM3.8457 16.1943L3.83811 16.3442L3.84191 16.3443L3.8457 16.1943ZM1.00391 13.3525L0.853906 13.3563L0.854099 13.3601L1.00391 13.3525ZM1 13.1982H0.849952L0.850048 13.202L1 13.1982ZM4 2.99805V2.84805V2.84805V2.99805ZM16.7002 2.99805L16.704 2.84805H16.7002V2.99805ZM16.8545 3.00195L16.8469 3.15176C18.3526 3.22814 19.5502 4.47332 19.5502 5.99805H19.7002H19.8502C19.8502 4.3127 18.5265 2.93658 16.8621 2.85215L16.8545 3.00195ZM19.7002 5.99805H19.5502V7.39746H19.7002H19.8502V5.99805H19.7002ZM19.7002 7.39746V7.24746H18.4004V7.39746V7.54746H19.7002V7.39746ZM18.4004 7.39746H18.5504V5.99805H18.4004H18.2504V7.39746H18.4004ZM18.4004 5.99805H18.5504C18.5504 4.97637 17.7218 4.14796 16.7002 4.14785L16.7002 4.29785L16.7002 4.44785C17.5562 4.44795 18.2504 5.14209 18.2504 5.99805H18.4004ZM16.7002 4.29785V4.14785H4V4.29785V4.44785H16.7002V4.29785ZM4 4.29785V4.14785C2.97827 4.14785 2.1498 4.97632 2.1498 5.99805H2.2998H2.4498C2.4498 5.14201 3.14396 4.44785 4 4.44785V4.29785ZM2.2998 5.99805H2.1498V13.1982H2.2998H2.4498V5.99805H2.2998ZM2.2998 13.1982L2.1498 13.1983C2.15003 14.2198 2.97837 15.0484 4 15.0484V14.8984V14.7484C3.14412 14.7484 2.45 14.0541 2.4498 13.1982L2.2998 13.1982ZM4 14.8984V15.0484H4.2998V14.8984V14.7484H4V14.8984ZM4.2998 14.8984H4.1498V16.1982H4.2998H4.4498V14.8984H4.2998ZM4.2998 16.1982V16.0482H4V16.1982V16.3482H4.2998V16.1982ZM4 16.1982L4.0038 16.0483L3.8495 16.0444L3.8457 16.1943L3.84191 16.3443L3.9962 16.3482L4 16.1982ZM3.8457 16.1943L3.85329 16.0445C2.39627 15.9707 1.22772 14.802 1.15371 13.3449L1.00391 13.3525L0.854099 13.3601C0.93591 14.9709 2.2273 16.2625 3.83811 16.3441L3.8457 16.1943ZM1.00391 13.3525L1.15386 13.3487L1.14995 13.1944L1 13.1982L0.850048 13.202L0.853954 13.3563L1.00391 13.3525ZM1 13.1982H1.15V5.99805H1H0.85V13.1982H1ZM1 5.99805H1.15C1.15 4.42404 2.42599 3.14805 4 3.14805V2.99805V2.84805C2.2603 2.84805 0.85 4.25835 0.85 5.99805H1ZM4 2.99805V3.14805H16.7002V2.99805V2.84805H4V2.99805ZM16.7002 2.99805L16.6964 3.148L16.8507 3.15191L16.8545 3.00195L16.8583 2.852L16.704 2.84809L16.7002 2.99805Z" fill="black"/>
</svg>
