<svg width="24" height="24" viewBox="0 0 24 24" fill="none" xmlns="http://www.w3.org/2000/svg">
<path d="M18.7692 19.7002V21H11.2308V19.7002H18.7692ZM20.6002 18V15C20.6002 14.0611 19.7803 13.2998 18.7692 13.2998H11.2308C10.2197 13.2998 9.39979 14.0611 9.39979 15V18C9.39979 18.9389 10.2197 19.7002 11.2308 19.7002V21L11.0646 20.9961C9.41256 20.9184 8.0879 19.6883 8.00421 18.1543L8 18V15C8 13.3431 9.44646 12 11.2308 12H18.7692C20.5535 12 22 13.3431 22 15V18C22 19.6051 20.6425 20.9158 18.9354 20.9961L18.7692 21V19.7002C19.7803 19.7002 20.6002 18.9389 20.6002 18Z" fill="black"/>
<mask id="mask0_22864_79187" style="mask-type:alpha" maskUnits="userSpaceOnUse" x="5" y="7" width="14" height="10">
<path d="M15.6842 15.4219V16.7901H8.31579V15.4219H15.6842ZM17.4739 13.6322V10.4743C17.4739 9.486 16.6725 8.68462 15.6842 8.68462H8.31579C7.32749 8.68462 6.52611 9.486 6.52611 10.4743V13.6322C6.52611 14.6205 7.32749 15.4219 8.31579 15.4219V16.7901L8.15338 16.786C6.53859 16.7042 5.24382 15.4094 5.16201 13.7946L5.1579 13.6322V10.4743C5.1579 8.73024 6.57174 7.31641 8.31579 7.31641H15.6842C17.4283 7.31641 18.8421 8.73024 18.8421 10.4743V13.6322C18.8421 15.3218 17.5152 16.7014 15.8466 16.786L15.6842 16.7901V15.4219C16.6725 15.4219 17.4739 14.6205 17.4739 13.6322Z" fill="white"/>
</mask>
<g mask="url(#mask0_22864_79187)">
<path d="M8.8421 14.1584V16.79L4.63158 17.3163V6.26367H20.4211V12.0531H10.4211L8.8421 14.1584Z" fill="black"/>
</g>
<mask id="mask1_22864_79187" style="mask-type:alpha" maskUnits="userSpaceOnUse" x="2" y="3" width="14" height="10">
<path d="M12.5265 11.1055V12.4737H5.15808V11.1055H12.5265ZM14.3162 9.31579V6.15789C14.3162 5.1696 13.5148 4.36822 12.5265 4.36822H5.15808C4.16978 4.36822 3.3684 5.1696 3.3684 6.15789V9.31579C3.3684 10.3041 4.16978 11.1055 5.15808 11.1055V12.4737L4.99566 12.4696C3.38088 12.3878 2.0861 11.093 2.00429 9.47821L2.00018 9.31579V6.15789C2.00018 4.41384 3.41402 3 5.15808 3H12.5265C14.2706 3 15.6844 4.41384 15.6844 6.15789V9.31579C15.6844 11.0054 14.3575 12.385 12.6889 12.4696L12.5265 12.4737V11.1055C13.5148 11.1055 14.3162 10.3041 14.3162 9.31579Z" fill="white"/>
</mask>
<g mask="url(#mask1_22864_79187)">
<path d="M5.68439 9.842V12.4736L1.47386 12.9999V1.94727H17.2633V7.73674H7.26334L5.68439 9.842Z" fill="black"/>
</g>
</svg>
