<svg width="24" height="24" viewBox="0 0 24 24" fill="none" xmlns="http://www.w3.org/2000/svg">
<path d="M5.75 4.73438C3.67893 4.73438 2 6.41331 2 8.48438V15.5166C2 17.5877 3.67893 19.2666 5.75 19.2666H18.25C20.3211 19.2666 22 17.5877 22 15.5166V8.48438C22 6.41331 20.3211 4.73438 18.25 4.73438H5.75ZM20.4589 8.0542L3.54108 8.0542C3.74182 7.01733 4.65448 6.23438 5.75 6.23438H18.25C19.3455 6.23438 20.2582 7.01733 20.4589 8.0542ZM3.5 9.5542L20.5 9.5542V11.415L3.5 11.415V9.5542ZM3.5 12.915L20.5 12.915V15.5166C20.5 16.7592 19.4926 17.7666 18.25 17.7666H5.75C4.50736 17.7666 3.5 16.7592 3.5 15.5166V12.915Z" fill="black"/>
</svg>
