<svg width="24" height="24" viewBox="0 0 24 24" fill="none" xmlns="http://www.w3.org/2000/svg">
<path d="M3.97124 18.9333C4.28216 19.2667 4.71354 19.4599 5.15331 19.4599C5.33538 19.4599 5.51185 19.4291 5.67992 19.3647L10.0525 17.8073C10.2681 17.7317 10.4642 17.6112 10.6295 17.4487C10.7107 17.3731 18.876 9.58882 19.4278 9.00058C20.1393 8.25549 20.537 7.26669 20.5342 6.23588C20.5342 5.18546 20.1449 4.17426 19.4418 3.39275C18.7415 2.63925 17.7695 2.20508 16.7779 2.20508C15.806 2.20508 14.8816 2.62805 14.1701 3.39555C13.8788 3.70928 9.49224 7.90255 5.51746 11.6869C5.29897 11.8913 5.1365 12.1546 5.04687 12.446L3.58189 17.149C3.38301 17.7709 3.53147 18.4515 3.97124 18.9333ZM6.59588 12.9305C6.93202 12.6112 14.848 5.07902 15.3298 4.56362C15.7387 4.12104 16.2429 3.88575 16.7807 3.88575C17.355 3.89695 17.9012 4.14065 18.2905 4.56362C18.6995 5.0258 18.9264 5.61964 18.9292 6.23588C18.932 6.83252 18.6995 7.40395 18.2849 7.82972C17.8648 8.27509 11.6463 14.2163 9.53425 16.2247L5.16171 17.7821H5.15611L5.11129 17.6672L6.59588 12.9305Z" fill="#660099"/>
</svg>
