<svg width="383" height="73" viewBox="0 0 383 73" fill="none" xmlns="http://www.w3.org/2000/svg">
<path d="M18.4082 2.95703C19.7754 2.04557 21.2077 1.37826 22.7051 0.955078C23.7793 0.629557 25 0.466797 26.3672 0.466797C28.5482 0.466797 30.6152 0.955078 32.5684 1.93164C34.1309 2.74544 35.4655 3.77083 36.5723 5.00781C37.6465 6.21224 38.4928 7.64453 39.1113 9.30469C39.5996 10.737 39.8438 12.2018 39.8438 13.6992C39.8438 15.4896 39.5345 17.166 38.916 18.7285C38.2975 20.3236 37.3698 21.7396 36.1328 22.9766C35.7422 23.4323 35.0098 24.0182 33.9355 24.7344C32.9915 25.3854 32.3893 25.8411 32.1289 26.1016C31.8034 26.3294 31.6406 26.6712 31.6406 27.127C31.6406 27.485 31.722 27.7943 31.8848 28.0547C32.015 28.25 32.2591 28.4453 32.6172 28.6406C32.8451 28.7708 33.0892 28.8359 33.3496 28.8359C33.4147 28.8359 33.6426 28.8034 34.0332 28.7383C34.3262 28.6732 34.5703 28.6243 34.7656 28.5918C37.5977 27.9733 39.502 27.5339 40.4785 27.2734L45.752 26.0527C46.0775 25.9876 46.4355 25.9551 46.8262 25.9551C47.7051 25.9551 48.4701 26.1178 49.1211 26.4434C50.2279 27.0293 51.0091 27.8431 51.4648 28.8848C51.5951 29.2754 51.9531 30.6914 52.5391 33.1328C52.6042 33.6536 52.6367 33.9792 52.6367 34.1094C52.6367 35.2161 52.2949 36.2253 51.6113 37.1367C50.9277 38.0807 50.0814 38.6667 49.0723 38.8945L43.457 40.2617C43.2617 40.2943 42.8548 40.3919 42.2363 40.5547C41.6504 40.6849 41.1621 40.7988 40.7715 40.8965C39.7624 41.1243 38.7858 41.3522 37.8418 41.5801C37.1908 41.7103 36.5885 42.0358 36.0352 42.5566C35.5143 43.0449 35.2051 43.6146 35.1074 44.2656C35.0749 44.3633 35.0586 44.5423 35.0586 44.8027C35.0586 45.6491 35.4655 46.5768 36.2793 47.5859L47.6562 61.502C48.1771 62.1204 48.5189 62.8854 48.6816 63.7969C48.7467 64.3177 48.7793 64.6107 48.7793 64.6758C48.7793 65.2617 48.6816 65.7988 48.4863 66.2871C48.1934 67.0358 47.8516 67.6055 47.4609 67.9961C46.875 68.582 46.2565 69.1191 45.6055 69.6074C45.2148 69.8353 44.8079 70.1445 44.3848 70.5352C43.4733 71.349 42.3991 71.7559 41.1621 71.7559C40.446 71.7559 39.7461 71.6094 39.0625 71.3164C38.3789 71.0234 37.8255 70.6165 37.4023 70.0957C35.1888 67.5241 33.2845 65.2454 31.6895 63.2598L28.5156 59.3535C27.7995 58.4746 27.0671 58.0352 26.3184 58.0352C26.0579 58.0352 25.8952 58.0514 25.8301 58.084C25.0814 58.377 24.4303 58.8652 23.877 59.5488C21.6309 62.2507 20.2799 63.9108 19.8242 64.5293L15.7227 69.6074C15.1693 70.3887 14.4694 70.9583 13.623 71.3164C12.8418 71.6745 11.9466 71.8047 10.9375 71.707C10.1888 71.6419 9.55404 71.4629 9.0332 71.1699C8.34961 70.7793 7.68229 70.2747 7.03125 69.6562L5.85938 68.6797C5.17578 68.1589 4.6875 67.5729 4.39453 66.9219C4.03646 66.1406 3.85742 65.3757 3.85742 64.627C3.85742 63.4225 4.21549 62.3971 4.93164 61.5508L16.2598 47.6348C17.1061 46.6908 17.5293 45.7467 17.5293 44.8027C17.5293 44.5098 17.513 44.3145 17.4805 44.2168C17.4154 43.5007 17.1224 42.931 16.6016 42.5078C16.0482 42.0521 15.4134 41.7266 14.6973 41.5312C12.0931 40.8802 10.2702 40.457 9.22852 40.2617L3.80859 38.9434C2.53906 38.6504 1.54622 37.9668 0.830078 36.8926C0.276693 36.0788 0 35.151 0 34.1094C0 33.8164 0.016276 33.6211 0.0488281 33.5234C0.309245 32.1562 0.651042 30.724 1.07422 29.2266C1.46484 28.0547 2.21354 27.1595 3.32031 26.541C4.03646 26.1178 4.86654 25.9062 5.81055 25.9062C5.87565 25.9062 5.94076 25.9225 6.00586 25.9551C6.10352 25.9551 6.21745 25.9714 6.34766 26.0039C6.51042 26.0039 6.6569 26.0039 6.78711 26.0039L11.2305 27.0293C14.9089 27.9082 17.4316 28.4779 18.7988 28.7383L19.2871 28.8359C19.7754 28.8359 20.166 28.6732 20.459 28.3477C20.7845 27.957 20.9473 27.5501 20.9473 27.127C20.9473 26.7363 20.8333 26.4271 20.6055 26.1992C20.1823 25.776 19.5801 25.304 18.7988 24.7832C17.8874 24.1647 17.3503 23.7904 17.1875 23.6602C15.7227 22.3906 14.6322 20.8932 13.916 19.168C13.1673 17.3776 12.793 15.5384 12.793 13.6504C12.793 10.8835 13.5579 8.40951 15.0879 6.22852C15.9342 4.95898 17.041 3.86849 18.4082 2.95703ZM82.377 3.39648H103.227C114.424 3.39648 123.083 6.27734 129.203 12.0391C135.29 17.8008 138.334 26.362 138.334 37.7227C138.334 49.0508 135.29 57.5957 129.203 63.3574C123.083 69.1191 114.424 72 103.227 72H82.377V3.39648ZM102.787 64.5293C112.292 64.5293 119.145 62.2832 123.344 57.791C127.543 53.2988 129.643 46.6094 129.643 37.7227C129.643 28.8034 127.543 22.0977 123.344 17.6055C119.145 13.1133 112.292 10.8672 102.787 10.8672H92.0449C91.6543 10.8672 91.3451 10.9486 91.1172 11.1113C90.9544 11.2415 90.873 11.5508 90.873 12.0391V64.5293H102.787ZM151.52 71.3164C149.241 70.2096 147.451 68.6146 146.148 66.5312C144.879 64.4805 144.244 62.1042 144.244 59.4023C144.244 55.431 145.66 52.1432 148.492 49.5391C151.292 46.9674 155.947 45.2422 162.457 44.3633L176.861 42.3613V40.1641C176.861 36.4206 175.95 33.6699 174.127 31.9121C172.271 30.1217 169.602 29.2266 166.119 29.2266C162.994 29.2266 160.195 29.7474 157.721 30.7891C155.247 31.8307 153.017 33.3932 151.031 35.4766L145.855 30.0078C148.46 27.4036 151.454 25.418 154.84 24.0508C158.225 22.6836 162.18 22 166.705 22C172.825 22 177.382 23.5462 180.377 26.6387C183.339 29.6986 184.82 33.9141 184.82 39.2852V72H178.18C177.757 72 177.447 71.9023 177.252 71.707C177.089 71.5443 177.008 71.235 177.008 70.7793V65.8965C177.008 65.2129 176.764 64.8711 176.275 64.8711C175.917 64.8711 175.51 65.1966 175.055 65.8477C173.395 68.2891 171.295 70.0957 168.756 71.2676C166.282 72.4069 163.255 72.9766 159.674 72.9766C156.549 72.9766 153.831 72.4232 151.52 71.3164ZM152.545 58.4258C152.545 60.7695 153.375 62.625 155.035 63.9922C156.695 65.3594 159.202 66.043 162.555 66.043C165.387 66.043 167.877 65.5547 170.025 64.5781C172.141 63.6341 173.818 62.1855 175.055 60.2324C176.259 58.3444 176.861 56.0169 176.861 53.25V49.6855C176.861 49.1322 176.747 48.7415 176.52 48.5137C176.324 48.3184 175.917 48.2533 175.299 48.3184L163.043 50.0273C159.267 50.5807 156.581 51.5573 154.986 52.957C153.359 54.3893 152.545 56.2122 152.545 58.4258ZM193.221 66.6777L198.299 60.7695C202.01 64.2526 206.665 65.9941 212.264 65.9941C215.714 65.9941 218.237 65.3919 219.832 64.1875C221.492 62.918 222.322 61.2578 222.322 59.207C222.322 57.6445 221.867 56.3262 220.955 55.252C220.076 54.2428 218.872 53.4128 217.342 52.7617C215.812 52.1107 213.761 51.4271 211.189 50.7109C207.869 49.7995 205.07 48.7904 202.791 47.6836C200.48 46.5768 198.608 45.0957 197.176 43.2402C195.711 41.3197 194.979 38.8783 194.979 35.916C194.979 31.6842 196.492 28.2988 199.52 25.7598C202.514 23.2533 207.039 22 213.094 22C216.414 22 219.425 22.3906 222.127 23.1719C224.861 23.9531 227.173 25.0599 229.061 26.4922L224.715 32.7422C223.25 31.5052 221.492 30.5775 219.441 29.959C217.326 29.3079 215.096 28.9824 212.752 28.9824C209.399 28.9824 206.941 29.5684 205.379 30.7402C203.784 31.9447 202.986 33.4583 202.986 35.2812C202.986 36.7786 203.442 38.0319 204.354 39.041C205.2 39.985 206.388 40.7663 207.918 41.3848C209.057 41.8405 211.141 42.5078 214.168 43.3867C217.586 44.3633 220.418 45.3887 222.664 46.4629C224.975 47.5697 226.831 49.0833 228.23 51.0039C229.728 53.0547 230.477 55.6426 230.477 58.7676C230.477 63.097 228.963 66.5475 225.936 69.1191C222.941 71.6908 218.318 72.9766 212.068 72.9766C204.288 72.9766 198.006 70.877 193.221 66.6777ZM240.537 0.320312H247.324C247.78 0.320312 248.089 0.401693 248.252 0.564453C248.415 0.727214 248.496 1.03646 248.496 1.49219V29.3242C248.496 30.0078 248.74 30.3496 249.229 30.3496C249.619 30.3496 250.026 30.0241 250.449 29.373C250.97 28.5592 251.898 27.5339 253.232 26.2969C254.404 25.2227 256.097 24.2298 258.311 23.3184C260.459 22.4395 262.982 22 265.879 22C271.771 22 276.263 23.8229 279.355 27.4688C282.415 31.0495 283.945 36.3392 283.945 43.3379V72H275.986V44.998C275.986 39.7897 274.977 35.8835 272.959 33.2793C270.973 30.7077 267.734 29.4219 263.242 29.4219C258.066 29.4219 254.323 30.9681 252.012 34.0605C249.668 37.2181 248.496 41.4661 248.496 46.8047V72H240.537V0.320312ZM317.004 72.9766C312.154 72.9766 307.922 72 304.309 70.0469C300.695 68.0938 297.912 65.1966 295.959 61.3555C294.006 57.5143 293.029 52.8919 293.029 47.4883C293.029 42.2148 294.055 37.6576 296.105 33.8164C298.189 29.9102 301.021 26.9805 304.602 25.0273C308.28 23.0091 312.495 22 317.248 22C322.098 22 326.184 23.0742 329.504 25.2227C332.857 27.4036 335.331 30.3496 336.926 34.0605C338.521 37.7715 339.318 42.0684 339.318 46.9512C339.318 47.9277 339.27 48.9043 339.172 49.8809H301.428C301.818 55.1543 303.381 59.1582 306.115 61.8926C308.85 64.627 312.561 65.9941 317.248 65.9941C320.373 65.9941 323.059 65.4408 325.305 64.334C327.583 63.2272 329.488 61.7786 331.018 59.9883L336.828 64.8223C334.68 67.2637 331.962 69.2331 328.674 70.7305C325.386 72.2279 321.496 72.9766 317.004 72.9766ZM329.895 43.6797C330.318 43.6797 330.594 43.6146 330.725 43.4844C330.855 43.3542 330.92 43.0775 330.92 42.6543C330.92 40.4733 330.464 38.3574 329.553 36.3066C328.641 34.2559 327.128 32.5143 325.012 31.082C322.928 29.6823 320.275 28.9824 317.053 28.9824C312.463 28.9824 308.866 30.2845 306.262 32.8887C303.69 35.4603 302.111 39.0573 301.525 43.6797H329.895ZM345.131 66.6777L350.209 60.7695C353.92 64.2526 358.575 65.9941 364.174 65.9941C367.624 65.9941 370.147 65.3919 371.742 64.1875C373.402 62.918 374.232 61.2578 374.232 59.207C374.232 57.6445 373.777 56.3262 372.865 55.252C371.986 54.2428 370.782 53.4128 369.252 52.7617C367.722 52.1107 365.671 51.4271 363.1 50.7109C359.779 49.7995 356.98 48.7904 354.701 47.6836C352.39 46.5768 350.518 45.0957 349.086 43.2402C347.621 41.3197 346.889 38.8783 346.889 35.916C346.889 31.6842 348.402 28.2988 351.43 25.7598C354.424 23.2533 358.949 22 365.004 22C368.324 22 371.335 22.3906 374.037 23.1719C376.771 23.9531 379.083 25.0599 380.971 26.4922L376.625 32.7422C375.16 31.5052 373.402 30.5775 371.352 29.959C369.236 29.3079 367.006 28.9824 364.662 28.9824C361.309 28.9824 358.852 29.5684 357.289 30.7402C355.694 31.9447 354.896 33.4583 354.896 35.2812C354.896 36.7786 355.352 38.0319 356.264 39.041C357.11 39.985 358.298 40.7663 359.828 41.3848C360.967 41.8405 363.051 42.5078 366.078 43.3867C369.496 44.3633 372.328 45.3887 374.574 46.4629C376.885 47.5697 378.741 49.0833 380.141 51.0039C381.638 53.0547 382.387 55.6426 382.387 58.7676C382.387 63.097 380.873 66.5475 377.846 69.1191C374.851 71.6908 370.229 72.9766 363.979 72.9766C356.199 72.9766 349.916 70.877 345.131 66.6777Z" fill="white"/>
</svg>
