<svg width="24" height="24" viewBox="0 0 24 24" fill="none" xmlns="http://www.w3.org/2000/svg">
<rect y="4.19922" width="24" height="15.6" rx="4" fill="black"/>
<path d="M14.4331 7.84375H9.5659V16.0961H14.4331V7.84375Z" fill="#FF5F00"/>
<path d="M9.87507 11.9718C9.87441 11.1772 10.0653 10.3928 10.4334 9.67808C10.8015 8.96335 11.3371 8.33697 11.9996 7.84636C11.179 7.23792 10.1935 6.85957 9.1558 6.75455C8.11806 6.64952 7.06993 6.82207 6.13121 7.25245C5.19249 7.68284 4.40105 8.35371 3.84734 9.18838C3.29363 10.0231 3 10.9879 3 11.9725C3 12.9572 3.29363 13.922 3.84734 14.7567C4.40105 15.5914 5.19249 16.2622 6.13121 16.6926C7.06993 17.123 8.11806 17.2955 9.1558 17.1905C10.1935 17.0855 11.179 16.7071 11.9996 16.0987C11.3369 15.6079 10.8012 14.9813 10.4331 14.2663C10.065 13.5513 9.87417 12.7667 9.87507 11.9718V11.9718Z" fill="#EB001B"/>
<path d="M20.4731 15.2217V15.0526H20.5457V15.0176H20.3619V15.0526H20.4345V15.2217H20.4731ZM20.8301 15.2217V15.0176H20.7744L20.7095 15.1634L20.6446 15.0176H20.589V15.2217H20.6276V15.0671L20.6879 15.1998H20.7296L20.7899 15.0671V15.2217H20.8301Z" fill="#F79E1B"/>
<path d="M21 11.97C21 12.9547 20.7063 13.9196 20.1525 14.7543C19.5987 15.589 18.8071 16.2598 17.8683 16.6902C16.9294 17.1205 15.8812 17.2929 14.8434 17.1877C13.8056 17.0826 12.8201 16.704 11.9995 16.0954C12.6618 15.6044 13.1973 14.9778 13.5654 14.263C13.9336 13.5483 14.1249 12.7639 14.1249 11.9692C14.1249 11.1745 13.9336 10.3902 13.5654 9.67543C13.1973 8.96066 12.6618 8.33411 11.9995 7.84306C12.8201 7.23443 13.8056 6.8559 14.8434 6.75072C15.8812 6.64555 16.9294 6.81798 17.8683 7.24831C18.8071 7.67863 19.5987 8.34949 20.1525 9.18419C20.7063 10.0189 21 10.9838 21 11.9685V11.97Z" fill="#F79E1B"/>
</svg>
