<svg width="24" height="24" viewBox="0 0 24 24" fill="none" xmlns="http://www.w3.org/2000/svg">
<path d="M15.7913 7.42699C15.4769 7.55968 15.1913 7.75235 14.9505 7.9943L12.2409 10.7045C12.1467 10.7984 12.0191 10.8512 11.8861 10.8511C11.7531 10.8511 11.6255 10.7983 11.5314 10.7043L8.83167 8.00412C8.62761 7.79911 8.3914 7.62948 8.13276 7.50174C8.0808 7.47608 8.02795 7.45211 7.97426 7.42989C7.65332 7.29701 7.30922 7.22908 6.96187 7.23001H6.63672L10.0658 3.80096C11.1337 2.73301 12.8651 2.73301 13.9331 3.80096L17.3523 7.22018H16.8204C16.4731 7.21923 16.1289 7.28716 15.808 7.42003L15.7913 7.42699ZM9.04929 6.5852C9.29022 6.73834 9.51408 6.91798 9.71652 7.1212L9.71761 7.12229L11.8862 9.29125L14.0646 7.11248L14.0657 7.11135C14.3037 6.87242 14.5713 6.6661 14.8615 6.49711L13.0492 4.68485C12.4694 4.10505 11.5294 4.10505 10.9496 4.68485L9.04929 6.5852Z" fill="black"/>
<path d="M8.13279 16.4981C7.77322 16.6759 7.37477 16.7698 6.96197 16.7698H6.63672L10.0659 20.199C11.1338 21.2669 12.8652 21.2669 13.9332 20.199L17.3525 16.7797H16.8205C16.4732 16.7806 16.129 16.7127 15.8081 16.5798L15.7915 16.5729C15.4771 16.4402 15.1915 16.2475 14.9506 16.0055L12.241 13.2959C12.0515 13.1063 11.7211 13.1058 11.5315 13.2959L8.83178 15.9957C8.6243 16.2031 8.38837 16.3718 8.13279 16.4981ZM9.71568 16.8796L11.8862 14.7089L14.0647 16.8874L14.0657 16.8884C14.3037 17.1274 14.5714 17.3337 14.8616 17.5028L13.0493 19.3151C12.4695 19.8949 11.5296 19.8949 10.9498 19.3151L9.04921 17.4146C9.28775 17.2628 9.51144 17.0837 9.71568 16.8796Z" fill="black"/>
<path d="M5.84339 15.976L3.80096 13.9336C2.73301 12.8657 2.73301 11.1342 3.80096 10.0663L5.84349 8.02376H6.96251C7.44958 8.02376 7.9264 8.22131 8.27054 8.56578L10.9704 11.2656L10.9828 11.2779C11.1005 11.3925 11.2389 11.4837 11.3907 11.5465C11.548 11.6115 11.7165 11.6449 11.8867 11.6446C12.2132 11.6446 12.5396 11.5223 12.7906 11.2781L12.8029 11.2659L15.5128 8.55596C15.8605 8.21005 16.3306 8.01528 16.8211 8.01394H18.1467L20.1992 10.0663C21.2671 11.1342 21.2671 12.8657 20.1992 13.9336L18.1468 15.9859L16.8211 15.986C16.3306 15.9846 15.8605 15.7898 15.5128 15.4439L12.8032 12.7343L12.796 12.7272C12.5521 12.4876 12.2199 12.3675 11.8877 12.3673H11.8867C11.5541 12.3672 11.2217 12.4872 10.9776 12.7273L10.9704 12.7345L8.27054 15.4341C7.92291 15.78 7.45288 15.9747 6.96251 15.9761L5.84339 15.976ZM4.68485 10.9502C4.10505 11.53 4.10505 12.4699 4.68485 13.0497L6.3612 14.7261L6.96027 14.7261C7.1206 14.7253 7.27422 14.6617 7.3881 14.5488L7.38894 14.548L9.93705 12.0001L7.38666 9.44966C7.27711 9.34001 7.11806 9.27376 6.96251 9.27376H6.36126L4.68485 10.9502ZM16.3944 9.44211L13.8366 12L16.3944 14.5578L16.3953 14.5586C16.5092 14.6715 16.6628 14.7352 16.8232 14.736L17.629 14.7359L19.3153 13.0497C19.8951 12.4699 19.8951 11.53 19.3153 10.9502L17.629 9.26394H16.8232C16.6629 9.26471 16.5093 9.32835 16.3954 9.44119L16.3944 9.44211Z" fill="black"/>
</svg>
