<svg width="24" height="24" viewBox="0 0 24 24" fill="none" xmlns="http://www.w3.org/2000/svg">
<rect y="4.19922" width="24" height="15.6" rx="4" fill="#1A1F71"/>
<g clip-path="url(#clip0_22861_79032)">
<path d="M10.1533 9.11842L9.18227 14.9109H10.7347L11.7064 9.11842H10.1533Z" fill="white"/>
<path d="M14.9541 9C15.5562 9 16.0384 9.12593 16.346 9.24329L16.1356 10.4987L15.9964 10.4318C15.7097 10.3145 15.3418 10.2019 14.8339 10.2099C14.2258 10.2099 13.9444 10.4674 13.9444 10.7081C13.9409 10.9795 14.2733 11.1583 14.8162 11.4263C15.7123 11.8397 16.1261 12.3411 16.1203 13.0001C16.1082 14.2025 15.0484 14.9792 13.4157 14.9792C12.7191 14.9719 12.0483 14.8319 11.6856 14.6701L11.9035 13.3734L12.1037 13.4655C12.6138 13.6817 12.944 13.7694 13.5656 13.7694C14.0121 13.7694 14.491 13.5921 14.4949 13.2038C14.4978 12.9503 14.2946 12.7693 13.69 12.4853C13.1009 12.2083 12.3204 11.7439 12.3291 10.9116C12.3383 9.78563 13.4193 9 14.9541 9Z" fill="white"/>
<path fill-rule="evenodd" clip-rule="evenodd" d="M19.1427 9.11833H20.3429L21.6 14.907H20.1588C20.1588 14.907 20.0162 14.2419 19.9698 14.0391C19.8498 14.0391 19.3484 14.0384 18.8771 14.0377C18.459 14.0371 18.0644 14.0366 17.9807 14.0366C17.9204 14.1933 17.6538 14.907 17.6538 14.907H16.0228L18.3295 9.59868C18.4927 9.22148 18.771 9.11833 19.1427 9.11833ZM18.4387 12.8587H19.728C19.6658 12.5687 19.3684 11.186 19.3684 11.186L19.2635 10.6866C19.2222 10.8011 19.1648 10.9525 19.121 11.068C19.0816 11.1719 19.0532 11.2468 19.0575 11.2395C19.0575 11.2395 18.5673 12.5248 18.4387 12.8587Z" fill="white"/>
<path d="M6.34319 13.0685L7.86376 9.11833L9.50906 9.11827L7.06387 14.8998L5.42058 14.9016L4.0424 9.88046C3.56235 9.60848 3.01389 9.38999 2.39999 9.23892L2.41985 9.1184H4.92433C5.26166 9.13119 5.53441 9.24081 5.62839 9.60761L6.15668 12.1898C6.1653 12.2152 6.17347 12.2405 6.1812 12.2658L6.34319 13.0685Z" fill="white"/>
</g>
<defs>
<clipPath id="clip0_22861_79032">
<rect width="19.2" height="6" fill="white" transform="translate(2.39999 9)"/>
</clipPath>
</defs>
</svg>
