<svg width="24" height="24" viewBox="0 0 24 24" fill="none" xmlns="http://www.w3.org/2000/svg">
<path fill-rule="evenodd" clip-rule="evenodd" d="M14.5035 13.9671C14.597 13.8859 14.7078 13.829 14.8266 13.7986C15.2503 13.6899 16.557 13.3555 16.9947 13.2509C17.5202 13.125 18.2358 12.6214 17.9242 11.3015C17.6127 9.98216 16.3385 10.233 16.3385 10.233C16.3385 10.233 14.2261 10.7467 13.7905 10.8502C13.3546 10.9523 13.2543 10.5739 13.2543 10.5739C13.2543 10.5739 13.1205 10.1843 13.5341 9.96656C14.2638 9.58302 15.2115 8.55737 15.2133 7.02023C15.2144 5.48309 13.8529 4.00237 11.9758 4C10.0984 3.99811 8.65547 5.61388 8.83267 7.42693C9.00911 9.23904 10.3494 9.90558 10.5619 9.99792C10.7742 10.0903 10.8631 10.2617 10.796 10.5947C10.7624 10.7609 10.6254 10.8324 10.4968 10.8624C10.3801 10.8895 10.2587 10.8832 10.1427 10.8534C9.8741 10.7841 9.09947 10.586 7.90217 10.2929C6.39372 9.92464 6.16942 11.1288 6.16942 11.1288L6.03441 11.6562C5.85107 12.4602 6.44712 12.9518 6.7199 13.13C6.79308 13.1778 6.87348 13.2121 6.9577 13.2334C7.35844 13.3342 8.74998 13.685 9.1501 13.7933C9.61927 13.9199 9.84234 14.1494 9.88668 14.6659C9.93087 15.1815 9.63553 15.5467 9.63553 15.5467C9.31043 15.9574 7.5829 18.0988 7.29078 18.4368C6.99821 18.7754 6.91643 18.9812 6.88391 19.3752C6.85123 19.7693 7.03488 20.0086 7.14258 20.1753C7.25074 20.3422 7.55881 20.5923 7.80199 20.7755C8.04501 20.9594 8.42396 21.031 8.77023 20.982C9.1165 20.9328 9.43071 20.6774 9.54424 20.5384C9.65778 20.4002 11.3364 18.2766 11.4519 18.131C11.5668 17.9855 11.6662 17.7961 12.0056 17.7747C12.2821 17.7575 12.4445 17.9754 12.4956 18.0575C12.5119 18.0837 12.5292 18.1084 12.5482 18.1325C12.7515 18.3897 13.7877 19.6991 14.3393 20.3597C14.9531 21.0945 15.534 21.2787 16.563 20.4769C17.5917 19.6752 16.8775 18.791 16.8775 18.791C16.8775 18.791 14.8016 16.2658 14.4671 15.7716C14.1323 15.2782 14.1326 15.0028 14.1443 14.67C14.1556 14.3341 14.3496 14.1005 14.5035 13.9671" fill="black"/>
</svg>
